<?xml version="1.0" encoding="UTF-8" standalone="no"?><svg height="80.78373mm" viewBox="0 0 132.29167 80.783729" width="132.29167mm" xmlns="http://www.w3.org/2000/svg"><g transform="matrix(1.0522722 0 0 1.0522722 405.114106087385 4.75148179248)"><g stroke="#000"><g stroke="#000" transform="translate(-.100122)"><path d="m-353.23592 62.178041v.331405c0 .769338.36681 1.372973 1.12086 1.84641.95784.603636 2.4659.958716 4.09624.958716 2.95504 0 5.32932-1.219105 5.32932-2.79329 0-1.017891-.75629-1.787231-2.24397-2.083129 1.32465-.426094 1.85676-1.017893 1.85676-1.834574 0-1.349303-2.17047-2.331686-4.98285-2.331686-1.54885 0-3.03652.295898-3.89246.769337-.7948.437931-1.12087.97055-1.12087 1.810904h3.05691c0-.662817.69289-1.065238 1.85453-1.065238 1.14126 0 1.91497.402421 1.91497.994222 0 .627306-.83485 1.065236-2.01687 1.065236h-.91708v1.479498h1.14126c.46873 0 .93744.08285 1.34503.236717.55024.213048.79412.520783.79412.982386 0 .781174-.79412 1.254612-2.07803 1.254612-.75403 0-1.38581-.153882-1.73223-.414258-.32609-.248555-.46873-.579965-.46873-1.207268z" stroke-width=".592176"/><g stroke-width=".527279"><path d="m-337.61233 56.311508-3.69809 8.690988h3.03106l.32807-.814162h4.69753l.32697.814162h3.03108l-3.69918-8.690988zm2.01199 2.038146 1.69809 4.226695h-3.40053z"/><path d="m-310.37899 57.778818q-1.37865 0-2.13846.756698-.7598.756698-.7598 2.130396 0 1.36788.7598 2.124578.75981.756698 2.13846.756698 1.38645 0 2.14625-.756698.75981-.756698.75981-2.124578 0-1.373698-.75981-2.130396-.7598-.756698-2.14625-.756698zm0-1.623992q2.81991 0 4.41788 1.199077 1.59795 1.199076 1.59795 3.312009 0 2.107116-1.59795 3.306191-1.59797 1.199076-4.41788 1.199076-2.81211 0-4.41788-1.199076-1.59797-1.199075-1.59797-3.306191 0-2.112933 1.59797-3.312009 1.60577-1.199077 4.41788-1.199077z"/><path d="m-298.71804 63.308537h3.89064v-5.302711h-3.16215v.52969c0 2.483523-.24283 4.07453-.72849 4.773021zm-3.55622 0c .54307-.267754.89034-.597597 1.04179-.989527.15144-.395812.22716-1.851002.22716-4.36557v-1.641453h9.19367v6.99655h1.02058v3.562305h-2.70177v-1.868466h-6.95798v1.868466h-2.70078v-3.562305z"/><path d="m-322.74878 59.676385c.4752 0 .83552-.07762 1.08096-.232832.24544-.15521.36815-.384169.36815-.686848 0-.298799-.12275-.525809-.36815-.681029-.24544-.159091-.60576-.238651-1.08096-.238651h-2.78454v1.83936zm.10187 3.800955c.60576 0 1.06006-.09508 1.36295-.285218.3081-.190136.46215-.477303.46215-.861472 0-.376408-.15144-.657745-.4543-.844009-.30289-.190137-.75983-.285218-1.3708-.285218h-2.88639v2.275917zm3.00389-3.125747c.64752.139687 1.14883.397747 1.50394.774159.35511.37641.53266.83819.53266 1.385341 0 .83819-.17063 1.562572-.93297 1.973907-.76242.411332-1.92159.517376-3.47778.517376h-6.53187v-8.690389h6.05407c1.62406 0 2.79888.08224 3.52475.447013.73109.364767.88598 1.048921.88598 1.852186 0 .422975-.13309.783862-.39949 1.08266-.26632.29492-.65275.514169-1.15929.657747z"/></g></g><g stroke="#000"><path d="m-356.36714 43.923946v8.704832h-2.86382v-5.97036l-4.26048 5.97036h-3.37384v-8.704832h2.86384v5.970362l4.26048-5.970362z" stroke-width=".528155"/><g stroke-width=".527279"><path d="m-353.56686 43.928626h5.84972c1.48829 0 2.62931.14655 3.42305.639374.79898.488944.98759 1.287297.98759 2.195334 0 .911918-.18855 1.61429-.98759 2.107114-.79374.488944-1.93476.733416-3.42305.733416h-2.83368v3.015151h-3.01604zm3.01604 1.623991v2.427257h2.30165c.58486 0 1.03657-.104781 1.35513-.314321.31854-.213428.4778-.514169.4778-.902219s-.15924-.68685-.4778-.896397c-.31856-.209541-.77027-.31432-1.35513-.31432z"/><path d="m-335.81251 45.395457q-1.37862 0-2.13843.756698-.75983.756698-.75983 2.130396 0 1.36788.75983 2.124578.75981.756698 2.13843.756698 1.38647 0 2.14628-.756698.75981-.756698.75981-2.124578 0-1.373698-.75981-2.130396-.75981-.756698-2.14628-.756698zm0-1.623992q2.81991 0 4.41788 1.199077 1.59795 1.199076 1.59795 3.312009 0 2.107116-1.59795 3.306191-1.59797 1.199076-4.41788 1.199076-2.81209 0-4.41788-1.199076-1.59797-1.199075-1.59797-3.306191 0-2.112933 1.59797-3.312009 1.60579-1.199077 4.41788-1.199077z"/><path d="m-321.71803 47.293024c.47521 0 .83553-.07762 1.08097-.232832.24543-.15521.36814-.384169.36814-.686848 0-.298799-.12275-.525809-.36814-.681029-.24544-.159091-.60576-.238651-1.08097-.238651h-2.78454v1.83936zm.10187 3.800955c.60576 0 1.06006-.09508 1.36295-.285218.3081-.190136.46215-.477303.46215-.861472 0-.376408-.15143-.657745-.4543-.844009-.30289-.190137-.75983-.285218-1.3708-.285218h-2.88639v2.275917zm3.00389-3.125747c.64752.139687 1.14884.397747 1.50395.774159.35511.37641.53265.83819.53265 1.385341 0 .83819-.17126 1.562933-.93368 1.974268-.76242.411332-1.92159.517015-3.47778.517015h-6.53116v-8.690389h6.05336c1.62406 0 2.79888.0826 3.52475.447374.73108.364767.88669 1.04856.88669 1.851825 0 .422975-.13308.783862-.39948 1.08266-.26632.29492-.65275.514169-1.1593.657747z"/></g><path d="m-303.61473 47.194041c-.0873-.749133-.62562-1.647053-1.16705-2.134583-.97806-.879932-2.56745-1.367464-4.47118-1.367464-3.59789 0-5.83347 1.736084-5.83347 4.554251 0 2.794384 2.20065 4.530471 5.74614 4.530471 3.16126 0 5.56837-1.248556 5.72556-3.234352h-3.3097c-.17463 1.105862-1.47079 1.526122-2.52775 1.526122s-2.52774-.907791-2.52774-2.798459c0-1.91445 1.47078-2.845534 2.52774-2.845534s2.32766.599324 2.52775 1.769548z" stroke-width=".549482"/><path d="m-278.0531 43.923946v8.704832h-2.86387v-5.97036l-4.26045 5.97036h-3.37383v-8.704832h2.86384v5.970362l4.26044-5.970362z" stroke-width=".528155"/><path d="m-272.85746 40.86004c.0837.501412.35121.884453.80108 1.148768.44983.260425 1.37841.391278 2.15259.391278.77415 0 1.70275-.130849 2.15258-.391278.4499-.264315.71626-.647356.79999-1.148768h-1.1226c-.10989.237109-.28954.414196-.54061.530786-.25107.116592-.89184.175479-1.28936.175479-.39755 0-1.0383-.05889-1.28937-.175479-.25107-.116613-.43182-.293684-.54171-.530786zm-2.29537 3.06375v8.705157h3.37329l4.26048-5.97056v5.97056h2.86431v-8.705157h-3.3744l-4.26048 5.970558v-5.970558z" stroke-width=".528155"/><path d="m-301.29137 43.928147v8.690988h3.0158v-1.447408l2.20599-2.019613 2.31129 3.467021h3.89862l-3.97558-5.512789 3.4703-3.178199h-4.11008l-3.80054 3.479014v-3.479014z" stroke-width=".527279"/><path d="m-379.60536 43.928147v8.690988h3.0158v-1.447408l2.20599-2.019613 2.31126 3.467021h3.89862l-3.97555-5.512789 3.47028-3.178199h-4.11006l-3.80054 3.479014v-3.479014z" stroke-width=".527279"/></g></g><g transform="matrix(1.2355858 0 0 1.2355858 -405.49327 -112.29428)"><path d="m63.036204 91.373386-3.817856 7.066235-7.065201 3.817339v8.86406l7.065201 3.81733 3.817856 7.06624h8.864575l3.817338-7.06624 7.066237-3.81733v-8.86406l-7.06572-3.817339-3.817855-7.066235zm4.432287 5.253942 10.061401 10.061402-10.061401 10.06192-10.061402-10.06192z" fill="#f00"/><g fill="#fef300" transform="translate(50.421469 10.585035)"><path d="m13.361976 82.036855-6.9633992 12.886034 12.8860352-12.886034z"/><path d="m2.9799891 99.789015 12.8860339 6.963395-12.8860339-12.886031z"/><path d="m20.732151 110.171 6.963394-12.886032-12.886031 12.886032z"/><path d="m31.114134 92.41884-12.886033-6.963394 12.886033 12.88603z"/></g></g></g></svg>